<svg width="60" height="60" viewBox="0 0 60 60" fill="none" xmlns="http://www.w3.org/2000/svg">
<path d="M33 53.814C39.0519 53.0439 44.5834 49.9984 48.4704 45.2963C52.3574 40.5943 54.3082 34.5886 53.9261 28.4999C53.5441 22.4112 50.858 16.6965 46.4138 12.5171C41.9695 8.33782 36.1007 6.00756 30 6C23.8919 5.99545 18.0118 8.32001 13.558 12.5C9.10419 16.6801 6.41172 22.401 6.02923 28.4971C5.64674 34.5932 7.60301 40.6059 11.4994 45.3098C15.3959 50.0137 20.9392 53.055 27 53.814V36H21V30H27V25.038C27 21.027 27.42 19.572 28.2 18.105C28.9683 16.6536 30.1559 15.4671 31.608 14.7C32.754 14.085 34.179 13.716 36.669 13.557C37.656 13.494 38.934 13.572 40.503 13.797V19.497H39C36.249 19.497 35.112 19.626 34.434 19.989C34.0294 20.1971 33.7001 20.5264 33.492 20.931C33.132 21.609 33 22.281 33 25.035V30H40.5L39 36H33V53.814ZM30 60C13.431 60 0 46.569 0 30C0 13.431 13.431 0 30 0C46.569 0 60 13.431 60 30C60 46.569 46.569 60 30 60Z" fill="black"/>
</svg>
