<svg width="60" height="60" viewBox="0 0 60 60" fill="none" xmlns="http://www.w3.org/2000/svg">
<path d="M46.015 17.5851C48.0033 17.5851 49.615 15.9734 49.615 13.9851C49.615 11.9969 48.0033 10.3851 46.015 10.3851C44.0268 10.3851 42.415 11.9969 42.415 13.9851C42.415 15.9734 44.0268 17.5851 46.015 17.5851Z" fill="black"/>
<path d="M30 14.5947C26.9532 14.5947 23.9748 15.4982 21.4414 17.1909C18.9081 18.8837 16.9336 21.2896 15.7676 24.1045C14.6016 26.9194 14.2966 30.0168 14.891 33.0051C15.4854 35.9934 16.9526 38.7383 19.107 40.8927C21.2614 43.0471 24.0063 44.5143 26.9946 45.1087C29.9829 45.7031 33.0803 45.3981 35.8952 44.2321C38.7101 43.0661 41.116 41.0916 42.8088 38.5583C44.5015 36.0249 45.405 33.0465 45.405 29.9997C45.405 25.9141 43.782 21.9957 40.893 19.1067C38.004 16.2177 34.0856 14.5947 30 14.5947ZM30 39.9997C28.0222 39.9997 26.0888 39.4132 24.4443 38.3144C22.7998 37.2156 21.5181 35.6538 20.7612 33.8266C20.0043 31.9993 19.8063 29.9886 20.1921 28.0488C20.578 26.109 21.5304 24.3272 22.9289 22.9287C24.3274 21.5301 26.1093 20.5777 28.0491 20.1919C29.9889 19.806 31.9995 20.0041 33.8268 20.7609C35.6541 21.5178 37.2159 22.7995 38.3147 24.444C39.4135 26.0885 40 28.0219 40 29.9997C40 32.6519 38.9464 35.1954 37.071 37.0708C35.1957 38.9462 32.6521 39.9997 30 39.9997Z" fill="black"/>
<path d="M30 5.405C38.01 5.405 38.96 5.435 42.1225 5.58C44.0246 5.60258 45.9087 5.95183 47.6925 6.6125C48.9867 7.11173 50.162 7.87636 51.1428 8.8572C52.1236 9.83803 52.8883 11.0133 53.3875 12.3075C54.0482 14.0913 54.3974 15.9754 54.42 17.8775C54.565 21.04 54.595 21.99 54.595 30.0025C54.595 38.015 54.565 38.96 54.42 42.1225C54.3974 44.0246 54.0482 45.9087 53.3875 47.6925C52.8883 48.9867 52.1236 50.162 51.1428 51.1428C50.162 52.1236 48.9867 52.8883 47.6925 53.3875C45.9087 54.0482 44.0246 54.3974 42.1225 54.42C38.96 54.565 38.01 54.595 30 54.595C21.99 54.595 21.04 54.565 17.8775 54.42C15.9754 54.3974 14.0913 54.0482 12.3075 53.3875C11.0133 52.8883 9.83803 52.1236 8.8572 51.1428C7.87636 50.162 7.11173 48.9867 6.6125 47.6925C5.95183 45.9087 5.60258 44.0246 5.58 42.1225C5.435 38.96 5.405 38.01 5.405 30C5.405 21.99 5.435 21.04 5.58 17.8775C5.60258 15.9754 5.95183 14.0913 6.6125 12.3075C7.11173 11.0133 7.87636 9.83803 8.8572 8.8572C9.83803 7.87636 11.0133 7.11173 12.3075 6.6125C14.0913 5.95183 15.9754 5.60258 17.8775 5.58C21.04 5.435 21.99 5.405 30 5.405ZM30 0C21.8525 0 20.83 0.0350001 17.63 0.18C15.1419 0.23024 12.6804 0.701924 10.35 1.575C8.35681 2.34574 6.54665 3.52444 5.03554 5.03554C3.52444 6.54665 2.34574 8.35681 1.575 10.35C0.701646 12.6812 0.229958 15.1436 0.18 17.6325C0.0350001 20.8325 0 21.85 0 30C0 38.15 0.0350001 39.17 0.18 42.37C0.23024 44.8581 0.701924 47.3196 1.575 49.65C2.34574 51.6432 3.52444 53.4534 5.03554 54.9645C6.54665 56.4756 8.35681 57.6543 10.35 58.425C12.6812 59.2984 15.1436 59.77 17.6325 59.82C20.8325 59.965 21.8525 60 30 60C38.1475 60 39.17 59.965 42.37 59.82C44.8589 59.77 47.3213 59.2984 49.6525 58.425C51.6457 57.6543 53.4559 56.4756 54.967 54.9645C56.4781 53.4534 57.6568 51.6432 58.4275 49.65C59.3 47.3187 59.7708 44.8563 59.82 42.3675C59.965 39.1675 60 38.15 60 30C60 21.85 59.965 20.83 59.82 17.63C59.7698 15.1419 59.2981 12.6804 58.425 10.35C57.6543 8.35681 56.4756 6.54665 54.9645 5.03554C53.4534 3.52444 51.6432 2.34574 49.65 1.575C47.3187 0.7025 44.8563 0.231658 42.3675 0.1825C39.1675 0.0324999 38.15 0 30 0Z" fill="black"/>
</svg>
