<svg width="25" height="20" viewBox="0 0 25 20" fill="none" xmlns="http://www.w3.org/2000/svg">
<path fill-rule="evenodd" clip-rule="evenodd" d="M-4.37114e-07 10C-4.49993e-07 9.70536 0.0940621 9.42278 0.261495 9.21444C0.428927 9.00609 0.656014 8.88904 0.8928 8.88904L21.9504 8.88904L16.3311 1.89891C16.1635 1.69031 16.0693 1.40737 16.0693 1.11236C16.0693 0.817342 16.1635 0.534408 16.3311 0.325801C16.4987 0.117193 16.7261 -7.31122e-07 16.9632 -7.41485e-07C17.2003 -7.51848e-07 17.4277 0.117192 17.5953 0.325801L24.7377 9.21344C24.8208 9.31664 24.8868 9.43924 24.9318 9.57421C24.9768 9.70918 25 9.85387 25 10C25 10.1461 24.9768 10.2908 24.9318 10.4258C24.8868 10.5608 24.8208 10.6834 24.7377 10.7866L17.5953 19.6742C17.4277 19.8828 17.2003 20 16.9632 20C16.7261 20 16.4987 19.8828 16.3311 19.6742C16.1635 19.4656 16.0693 19.1827 16.0693 18.8876C16.0693 18.5926 16.1635 18.3097 16.3311 18.1011L21.9504 11.111L0.8928 11.111C0.656014 11.111 0.428927 10.9939 0.261495 10.7856C0.0940622 10.5772 -4.24235e-07 10.2946 -4.37114e-07 10Z" fill="white"/>
</svg>
