<svg width="35" height="36" viewBox="0 0 35 36" fill="none" xmlns="http://www.w3.org/2000/svg">
<path fill-rule="evenodd" clip-rule="evenodd" d="M11.8855 10.0102C12.0604 9.83546 12.2706 9.69993 12.5019 9.61256C12.7332 9.52519 12.9804 9.48798 13.2272 9.50339C13.474 9.51881 13.7147 9.58649 13.9333 9.70196C14.152 9.81743 14.3436 9.97805 14.4955 10.1732L16.2905 12.4792C16.6195 12.9022 16.7355 13.4532 16.6055 13.9732L16.0585 16.1632C16.0302 16.2766 16.0317 16.3954 16.0629 16.5081C16.0941 16.6207 16.1539 16.7234 16.2365 16.8062L18.6935 19.2632C18.7763 19.3459 18.8792 19.4058 18.992 19.437C19.1049 19.4682 19.2239 19.4696 19.3375 19.4412L21.5265 18.8942C21.7831 18.83 22.0509 18.825 22.3098 18.8796C22.5686 18.9342 22.8116 19.0469 23.0205 19.2092L25.3265 21.0032C26.1555 21.6482 26.2315 22.8732 25.4895 23.6142L24.4555 24.6482C23.7155 25.3882 22.6095 25.7132 21.5785 25.3502C18.9397 24.4217 16.5437 22.911 14.5685 20.9302C12.5878 18.9552 11.0771 16.5596 10.1485 13.9212C9.78647 12.8912 10.1115 11.7842 10.8515 11.0442L11.8855 10.0102Z" fill="#007CCC"/>
<circle cx="17.5" cy="18" r="17" stroke="#007CCC"/>
</svg>
