<svg width="25" height="20" viewBox="0 0 25 20" fill="none" xmlns="http://www.w3.org/2000/svg">
<path fill-rule="evenodd" clip-rule="evenodd" d="M25 10C25 9.70536 24.9059 9.42278 24.7385 9.21444C24.5711 9.00609 24.344 8.88904 24.1072 8.88904L3.04962 8.88904L8.6689 1.89891C8.83654 1.69031 8.93073 1.40737 8.93073 1.11236C8.93073 0.817342 8.83654 0.534408 8.6689 0.325801C8.50126 0.117193 8.27388 -7.31122e-07 8.0368 -7.41485e-07C7.79971 -7.51848e-07 7.57234 0.117192 7.40469 0.325801L0.262293 9.21344C0.17915 9.31664 0.113186 9.43924 0.0681767 9.57421C0.023169 9.70918 4.43501e-07 9.85387 4.37114e-07 10C4.30726e-07 10.1461 0.023169 10.2908 0.0681767 10.4258C0.113186 10.5608 0.17915 10.6834 0.262293 10.7866L7.40469 19.6742C7.57234 19.8828 7.79971 20 8.0368 20C8.27388 20 8.50126 19.8828 8.6689 19.6742C8.83654 19.4656 8.93073 19.1827 8.93073 18.8876C8.93073 18.5926 8.83654 18.3097 8.6689 18.1011L3.04962 11.111L24.1072 11.111C24.344 11.111 24.5711 10.9939 24.7385 10.7856C24.9059 10.5772 25 10.2946 25 10Z" fill="black"/>
</svg>
