<svg width="60" height="50" viewBox="0 0 60 50" fill="none" xmlns="http://www.w3.org/2000/svg">
<path d="M30 0C21.3092 0 13.6292 0.975001 8.94231 1.72C5.06538 2.335 1.93846 5.4975 1.22538 9.6875C0.623077 13.2525 0 18.4675 0 25C0 31.5325 0.623077 36.75 1.22538 40.3125C1.93846 44.5025 5.06538 47.675 8.94231 48.2825C13.65 49.0225 21.3554 50 30 50C38.6446 50 46.3523 49.025 51.0577 48.28C54.9346 47.675 58.0615 44.5025 58.7746 40.3125C59.3769 36.7375 60 31.5125 60 25C60 18.4875 59.3862 13.2625 58.7746 9.6875C58.0615 5.4975 54.9346 2.335 51.0577 1.7175C46.3708 0.977499 38.6885 0 30 0ZM30 5C38.3838 5 45.8746 5.9275 50.4092 6.64C51.3516 6.78593 52.2277 7.24928 52.9136 7.96446C53.5994 8.67964 54.0602 9.61041 54.2308 10.625C54.7892 13.925 55.3846 18.8175 55.3846 25C55.3846 31.1725 54.7892 36.075 54.2308 39.375C54.0632 40.391 53.6033 41.3236 52.9169 42.0393C52.2305 42.7551 51.3528 43.2173 50.4092 43.36C45.8538 44.0725 38.3285 45 30 45C21.6692 45 14.1346 44.0725 9.59077 43.36C8.64787 43.2155 7.77103 42.7527 7.08494 42.0372C6.39886 41.3218 5.93846 40.3902 5.76923 39.375C5.21077 36.075 4.61538 31.1925 4.61538 25C4.61538 18.8 5.21077 13.925 5.76923 10.625C5.93846 9.60978 6.39886 8.67821 7.08494 7.96278C7.77103 7.24735 8.64787 6.78448 9.59077 6.64C14.1162 5.9275 21.6162 5 30 5ZM23.0769 10.7025V39.3L26.5385 37.19L42.6923 27.19L46.1538 25L42.6923 22.8125L26.5385 12.8125L23.0769 10.7025ZM27.6923 19.2975L36.8515 25L27.6923 30.7025V19.2975Z" fill="black"/>
</svg>
