<svg width="160" height="50" viewBox="0 0 160 50" fill="none" xmlns="http://www.w3.org/2000/svg">
<rect width="160" height="50" fill="#BBDDF3" fill-opacity="0.5"/>
<path d="M28.4492 31.1055C28.4492 30.2591 28.306 29.5039 28.0195 28.8398C27.7331 28.1628 27.2578 27.5638 26.5938 27.043C25.9427 26.5091 25.0833 26.0143 24.0156 25.5586C22.9479 25.1029 21.6328 24.6602 20.0703 24.2305C18.638 23.8398 17.3424 23.4167 16.1836 22.9609C15.0378 22.4922 14.0547 21.9583 13.2344 21.3594C12.4271 20.7604 11.8086 20.0508 11.3789 19.2305C10.9492 18.3971 10.7344 17.4141 10.7344 16.2812C10.7344 15.1875 10.9688 14.2044 11.4375 13.332C11.9062 12.4596 12.5638 11.7174 13.4102 11.1055C14.2695 10.4805 15.2721 10.0052 16.418 9.67969C17.5768 9.34115 18.8398 9.17188 20.207 9.17188C22.1211 9.17188 23.7943 9.53646 25.2266 10.2656C26.6589 10.9818 27.7786 11.9779 28.5859 13.2539C29.3932 14.5169 29.7969 15.9688 29.7969 17.6094H28.2148C28.2148 16.2682 27.8828 15.0703 27.2188 14.0156C26.5677 12.9609 25.6432 12.1341 24.4453 11.5352C23.2604 10.9232 21.8477 10.6172 20.207 10.6172C18.5143 10.6172 17.0755 10.8776 15.8906 11.3984C14.7188 11.9193 13.8268 12.6094 13.2148 13.4688C12.6159 14.3151 12.3164 15.2396 12.3164 16.2422C12.3164 16.9583 12.4466 17.6289 12.707 18.2539C12.9805 18.8789 13.4232 19.4518 14.0352 19.9727C14.6602 20.4935 15.5 20.9883 16.5547 21.457C17.6224 21.9128 18.9505 22.3555 20.5391 22.7852C21.9974 23.1628 23.306 23.5924 24.4648 24.0742C25.6367 24.543 26.6393 25.0964 27.4727 25.7344C28.306 26.3724 28.944 27.1276 29.3867 28C29.8294 28.8724 30.0508 29.8945 30.0508 31.0664C30.0508 32.2253 29.8034 33.2604 29.3086 34.1719C28.8138 35.0703 28.1237 35.8385 27.2383 36.4766C26.3659 37.1016 25.3372 37.5768 24.1523 37.9023C22.9805 38.2279 21.7174 38.3906 20.3633 38.3906C19.1263 38.3906 17.8828 38.2409 16.6328 37.9414C15.3958 37.6419 14.263 37.1602 13.2344 36.4961C12.2057 35.832 11.3789 34.9596 10.7539 33.8789C10.1289 32.7982 9.81641 31.4831 9.81641 29.9336H11.3984C11.3984 31.2617 11.6719 32.3815 12.2188 33.293C12.7656 34.1914 13.4818 34.9076 14.3672 35.4414C15.2526 35.9753 16.2161 36.3594 17.2578 36.5938C18.3125 36.8281 19.3477 36.9453 20.3633 36.9453C21.9518 36.9453 23.3516 36.7044 24.5625 36.2227C25.7865 35.7279 26.737 35.0443 27.4141 34.1719C28.1042 33.2865 28.4492 32.2643 28.4492 31.1055Z" fill="black"/>
<path d="M90.7852 9V39H89.2422V9H90.7852ZM90.4922 26.8125L89.7305 25.9141C89.8477 24.7943 90.1211 23.7266 90.5508 22.7109C90.9935 21.6953 91.5729 20.7969 92.2891 20.0156C93.0182 19.2344 93.8646 18.6159 94.8281 18.1602C95.8047 17.7044 96.8789 17.4766 98.0508 17.4766C99.1055 17.4766 100.049 17.6263 100.883 17.9258C101.716 18.2122 102.419 18.668 102.992 19.293C103.578 19.918 104.021 20.7253 104.32 21.7148C104.62 22.6914 104.77 23.8828 104.77 25.2891V39H103.227V25.2891C103.227 23.6224 102.999 22.3333 102.543 21.4219C102.087 20.4974 101.449 19.8464 100.629 19.4688C99.8216 19.0911 98.8776 18.9023 97.7969 18.9023C96.5469 18.9023 95.4661 19.1823 94.5547 19.7422C93.6562 20.2891 92.9141 20.9857 92.3281 21.832C91.7422 22.6654 91.293 23.5312 90.9805 24.4297C90.681 25.3281 90.5182 26.1224 90.4922 26.8125Z" fill="black"/>
<path d="M37.8418 35.5586V27.4336H39.6582V38H37.9297L37.8418 35.5586ZM38.1836 33.332L38.9355 33.3125C38.9355 34.0156 38.8607 34.6667 38.7109 35.2656C38.5677 35.8581 38.3333 36.3724 38.0078 36.8086C37.6823 37.2448 37.2559 37.5866 36.7285 37.834C36.2012 38.0749 35.5599 38.1953 34.8047 38.1953C34.2904 38.1953 33.8184 38.1204 33.3887 37.9707C32.9655 37.821 32.6009 37.5898 32.2949 37.2773C31.9889 36.9648 31.7513 36.5579 31.582 36.0566C31.4193 35.5553 31.3379 34.9531 31.3379 34.25V27.4336H33.1445V34.2695C33.1445 34.7448 33.1966 35.1387 33.3008 35.4512C33.4115 35.7572 33.5579 36.0013 33.7402 36.1836C33.929 36.3594 34.1374 36.4831 34.3652 36.5547C34.5996 36.6263 34.8405 36.6621 35.0879 36.6621C35.8561 36.6621 36.4648 36.5156 36.9141 36.2227C37.3633 35.9232 37.6855 35.5228 37.8809 35.0215C38.0827 34.5137 38.1836 33.9505 38.1836 33.332ZM44.8188 29.6895V38H43.0121V27.4336H44.7211L44.8188 29.6895ZM44.3891 32.3164L43.6371 32.2871C43.6436 31.5645 43.751 30.8971 43.9594 30.2852C44.1677 29.6667 44.4607 29.1296 44.8383 28.6738C45.2159 28.2181 45.6651 27.8665 46.1859 27.6191C46.7133 27.3652 47.296 27.2383 47.934 27.2383C48.4548 27.2383 48.9236 27.3099 49.3402 27.4531C49.7569 27.5898 50.1117 27.8112 50.4047 28.1172C50.7042 28.4232 50.932 28.8203 51.0883 29.3086C51.2445 29.7904 51.3227 30.3796 51.3227 31.0762V38H49.5063V31.0566C49.5063 30.5033 49.4249 30.0605 49.2621 29.7285C49.0993 29.39 48.8617 29.1458 48.5492 28.9961C48.2367 28.8398 47.8526 28.7617 47.3969 28.7617C46.9477 28.7617 46.5375 28.8561 46.1664 29.0449C45.8018 29.2337 45.4861 29.4941 45.2191 29.8262C44.9587 30.1582 44.7536 30.5391 44.6039 30.9688C44.4607 31.3919 44.3891 31.8411 44.3891 32.3164Z" fill="black"/>
<path d="M73.5293 36.1973C73.5293 35.9368 73.4707 35.696 73.3535 35.4746C73.2428 35.2467 73.0117 35.0417 72.6602 34.8594C72.3151 34.6706 71.7943 34.5078 71.0977 34.3711C70.5117 34.2474 69.9811 34.1009 69.5059 33.9316C69.0371 33.7624 68.6367 33.5573 68.3047 33.3164C67.9792 33.0755 67.7285 32.7923 67.5527 32.4668C67.377 32.1413 67.2891 31.7604 67.2891 31.3242C67.2891 30.9076 67.3802 30.5137 67.5625 30.1426C67.7513 29.7715 68.015 29.4427 68.3535 29.1562C68.6986 28.8698 69.112 28.6452 69.5938 28.4824C70.0755 28.3197 70.6126 28.2383 71.2051 28.2383C72.0514 28.2383 72.7741 28.388 73.373 28.6875C73.972 28.987 74.431 29.3874 74.75 29.8887C75.069 30.3835 75.2285 30.9336 75.2285 31.5391H73.4219C73.4219 31.2461 73.334 30.9629 73.1582 30.6895C72.9889 30.4095 72.7383 30.1784 72.4062 29.9961C72.0807 29.8138 71.6803 29.7227 71.2051 29.7227C70.7038 29.7227 70.2969 29.8008 69.9844 29.957C69.6784 30.1068 69.4538 30.2988 69.3105 30.5332C69.1738 30.7676 69.1055 31.015 69.1055 31.2754C69.1055 31.4707 69.138 31.6465 69.2031 31.8027C69.2747 31.9525 69.3984 32.0924 69.5742 32.2227C69.75 32.3464 69.9974 32.4635 70.3164 32.5742C70.6354 32.6849 71.0423 32.7956 71.5371 32.9062C72.403 33.1016 73.1159 33.3359 73.6758 33.6094C74.2357 33.8828 74.6523 34.2181 74.9258 34.6152C75.1992 35.0124 75.3359 35.4941 75.3359 36.0605C75.3359 36.5228 75.2383 36.946 75.043 37.3301C74.8542 37.7142 74.5775 38.0462 74.2129 38.3262C73.8548 38.5996 73.4251 38.8145 72.9238 38.9707C72.429 39.1204 71.8724 39.1953 71.2539 39.1953C70.3229 39.1953 69.5352 39.0293 68.8906 38.6973C68.2461 38.3652 67.7578 37.9355 67.4258 37.4082C67.0938 36.8809 66.9277 36.3242 66.9277 35.7383H68.7441C68.7702 36.2331 68.9134 36.627 69.1738 36.9199C69.4342 37.2064 69.7533 37.4115 70.1309 37.5352C70.5085 37.6523 70.8828 37.7109 71.2539 37.7109C71.7487 37.7109 72.1621 37.6458 72.4941 37.5156C72.8327 37.3854 73.0898 37.2064 73.2656 36.9785C73.4414 36.7507 73.5293 36.4902 73.5293 36.1973ZM80.2719 28.4336V39H78.4555V28.4336H80.2719ZM78.3188 25.6309C78.3188 25.3379 78.4066 25.0905 78.5824 24.8887C78.7647 24.6868 79.0316 24.5859 79.3832 24.5859C79.7283 24.5859 79.9919 24.6868 80.1742 24.8887C80.363 25.0905 80.4574 25.3379 80.4574 25.6309C80.4574 25.9108 80.363 26.1517 80.1742 26.3535C79.9919 26.5488 79.7283 26.6465 79.3832 26.6465C79.0316 26.6465 78.7647 26.5488 78.5824 26.3535C78.4066 26.1517 78.3188 25.9108 78.3188 25.6309ZM85.7352 24V39H83.9188V24H85.7352Z" fill="black"/>
<path d="M119.762 39.1953C119.026 39.1953 118.359 39.0716 117.76 38.8242C117.167 38.5703 116.656 38.2155 116.227 37.7598C115.803 37.304 115.478 36.7637 115.25 36.1387C115.022 35.5137 114.908 34.8301 114.908 34.0879V33.6777C114.908 32.8184 115.035 32.0534 115.289 31.3828C115.543 30.7057 115.888 30.1328 116.324 29.6641C116.76 29.1953 117.255 28.8405 117.809 28.5996C118.362 28.3587 118.935 28.2383 119.527 28.2383C120.283 28.2383 120.934 28.3685 121.48 28.6289C122.034 28.8893 122.486 29.2539 122.838 29.7227C123.189 30.1849 123.45 30.7318 123.619 31.3633C123.788 31.9883 123.873 32.6719 123.873 33.4141V34.2246H115.982V32.75H122.066V32.6133C122.04 32.1445 121.943 31.6888 121.773 31.2461C121.611 30.8034 121.35 30.4388 120.992 30.1523C120.634 29.8659 120.146 29.7227 119.527 29.7227C119.117 29.7227 118.74 29.8105 118.395 29.9863C118.049 30.1556 117.753 30.4095 117.506 30.748C117.258 31.0866 117.066 31.5 116.93 31.9883C116.793 32.4766 116.725 33.0397 116.725 33.6777V34.0879C116.725 34.5892 116.793 35.0612 116.93 35.5039C117.073 35.9401 117.278 36.3242 117.545 36.6562C117.818 36.9883 118.147 37.2487 118.531 37.4375C118.922 37.6263 119.365 37.7207 119.859 37.7207C120.497 37.7207 121.038 37.5905 121.48 37.3301C121.923 37.0697 122.311 36.7214 122.643 36.2852L123.736 37.1543C123.508 37.4993 123.219 37.8281 122.867 38.1406C122.516 38.4531 122.083 38.707 121.568 38.9023C121.061 39.0977 120.458 39.1953 119.762 39.1953ZM131.006 28.4336V29.8203H125.293V28.4336H131.006ZM127.227 25.8652H129.034V36.3828C129.034 36.7409 129.089 37.0111 129.2 37.1934C129.31 37.3757 129.454 37.4961 129.629 37.5547C129.805 37.6133 129.994 37.6426 130.196 37.6426C130.345 37.6426 130.502 37.6296 130.664 37.6035C130.834 37.571 130.961 37.5449 131.045 37.5254L131.055 39C130.912 39.0456 130.723 39.0879 130.489 39.127C130.261 39.1725 129.984 39.1953 129.659 39.1953C129.216 39.1953 128.809 39.1074 128.438 38.9316C128.067 38.7559 127.771 38.4629 127.549 38.0527C127.334 37.6361 127.227 37.0762 127.227 36.373V25.8652ZM138.149 28.4336V29.8203H132.436V28.4336H138.149ZM134.37 25.8652H136.177V36.3828C136.177 36.7409 136.232 37.0111 136.343 37.1934C136.453 37.3757 136.596 37.4961 136.772 37.5547C136.948 37.6133 137.137 37.6426 137.339 37.6426C137.488 37.6426 137.645 37.6296 137.807 37.6035C137.977 37.571 138.104 37.5449 138.188 37.5254L138.198 39C138.055 39.0456 137.866 39.0879 137.632 39.127C137.404 39.1725 137.127 39.1953 136.802 39.1953C136.359 39.1953 135.952 39.1074 135.581 38.9316C135.21 38.7559 134.914 38.4629 134.692 38.0527C134.477 37.6361 134.37 37.0762 134.37 36.373V25.8652ZM145.253 39.1953C144.517 39.1953 143.85 39.0716 143.251 38.8242C142.659 38.5703 142.148 38.2155 141.718 37.7598C141.295 37.304 140.969 36.7637 140.741 36.1387C140.514 35.5137 140.4 34.8301 140.4 34.0879V33.6777C140.4 32.8184 140.527 32.0534 140.78 31.3828C141.034 30.7057 141.379 30.1328 141.816 29.6641C142.252 29.1953 142.747 28.8405 143.3 28.5996C143.853 28.3587 144.426 28.2383 145.019 28.2383C145.774 28.2383 146.425 28.3685 146.972 28.6289C147.525 28.8893 147.978 29.2539 148.329 29.7227C148.681 30.1849 148.941 30.7318 149.111 31.3633C149.28 31.9883 149.364 32.6719 149.364 33.4141V34.2246H141.474V32.75H147.558V32.6133C147.532 32.1445 147.434 31.6888 147.265 31.2461C147.102 30.8034 146.842 30.4388 146.484 30.1523C146.126 29.8659 145.637 29.7227 145.019 29.7227C144.609 29.7227 144.231 29.8105 143.886 29.9863C143.541 30.1556 143.245 30.4095 142.997 30.748C142.75 31.0866 142.558 31.5 142.421 31.9883C142.284 32.4766 142.216 33.0397 142.216 33.6777V34.0879C142.216 34.5892 142.284 35.0612 142.421 35.5039C142.564 35.9401 142.769 36.3242 143.036 36.6562C143.31 36.9883 143.639 37.2487 144.023 37.4375C144.413 37.6263 144.856 37.7207 145.351 37.7207C145.989 37.7207 146.529 37.5905 146.972 37.3301C147.415 37.0697 147.802 36.7214 148.134 36.2852L149.228 37.1543C149 37.4993 148.71 37.8281 148.359 38.1406C148.007 38.4531 147.574 38.707 147.06 38.9023C146.552 39.0977 145.95 39.1953 145.253 39.1953Z" fill="black"/>
<path d="M92.8984 33.834V33.6094C92.8984 32.8477 93.0091 32.1413 93.2305 31.4902C93.4518 30.8327 93.7708 30.263 94.1875 29.7812C94.6042 29.293 95.1087 28.9154 95.7012 28.6484C96.2936 28.375 96.9577 28.2383 97.6934 28.2383C98.4355 28.2383 99.1029 28.375 99.6953 28.6484C100.294 28.9154 100.802 29.293 101.219 29.7812C101.642 30.263 101.964 30.8327 102.186 31.4902C102.407 32.1413 102.518 32.8477 102.518 33.6094V33.834C102.518 34.5957 102.407 35.3021 102.186 35.9531C101.964 36.6042 101.642 37.1738 101.219 37.6621C100.802 38.1439 100.298 38.5215 99.7051 38.7949C99.1191 39.0618 98.4551 39.1953 97.7129 39.1953C96.9707 39.1953 96.3034 39.0618 95.7109 38.7949C95.1185 38.5215 94.6107 38.1439 94.1875 37.6621C93.7708 37.1738 93.4518 36.6042 93.2305 35.9531C93.0091 35.3021 92.8984 34.5957 92.8984 33.834ZM94.7051 33.6094V33.834C94.7051 34.3613 94.7669 34.8594 94.8906 35.3281C95.0143 35.7904 95.1999 36.2005 95.4473 36.5586C95.7012 36.9167 96.0169 37.1999 96.3945 37.4082C96.7721 37.61 97.2116 37.7109 97.7129 37.7109C98.2077 37.7109 98.6406 37.61 99.0117 37.4082C99.3893 37.1999 99.7018 36.9167 99.9492 36.5586C100.197 36.2005 100.382 35.7904 100.506 35.3281C100.636 34.8594 100.701 34.3613 100.701 33.834V33.6094C100.701 33.0885 100.636 32.597 100.506 32.1348C100.382 31.666 100.193 31.2526 99.9395 30.8945C99.6921 30.5299 99.3796 30.2435 99.002 30.0352C98.6309 29.8268 98.1947 29.7227 97.6934 29.7227C97.1986 29.7227 96.7624 29.8268 96.3848 30.0352C96.0137 30.2435 95.7012 30.5299 95.4473 30.8945C95.1999 31.2526 95.0143 31.666 94.8906 32.1348C94.7669 32.597 94.7051 33.0885 94.7051 33.6094ZM112.248 36.5586V28.4336H114.064V39H112.336L112.248 36.5586ZM112.59 34.332L113.342 34.3125C113.342 35.0156 113.267 35.6667 113.117 36.2656C112.974 36.8581 112.74 37.3724 112.414 37.8086C112.089 38.2448 111.662 38.5866 111.135 38.834C110.607 39.0749 109.966 39.1953 109.211 39.1953C108.697 39.1953 108.225 39.1204 107.795 38.9707C107.372 38.821 107.007 38.5898 106.701 38.2773C106.395 37.9648 106.158 37.5579 105.988 37.0566C105.826 36.5553 105.744 35.9531 105.744 35.25V28.4336H107.551V35.2695C107.551 35.7448 107.603 36.1387 107.707 36.4512C107.818 36.7572 107.964 37.0013 108.146 37.1836C108.335 37.3594 108.544 37.4831 108.771 37.5547C109.006 37.6263 109.247 37.6621 109.494 37.6621C110.262 37.6621 110.871 37.5156 111.32 37.2227C111.77 36.9232 112.092 36.5228 112.287 36.0215C112.489 35.5137 112.59 34.9505 112.59 34.332Z" fill="black"/>
<path d="M85.6028 23.9151L31.1369 27.3785C55.4277 19.4374 75.0694 9.92493 91.4998 8.58654L85.6028 23.9151Z" fill="#F58B50"/>
</svg>
