<svg width="20" height="26" viewBox="0 0 20 26" fill="none" xmlns="http://www.w3.org/2000/svg">
<path fill-rule="evenodd" clip-rule="evenodd" d="M10 25.5C9.70536 25.5 9.42278 25.4059 9.21444 25.2385C9.00609 25.0711 8.88904 24.844 8.88904 24.6072L8.88904 3.54962L1.89891 9.1689C1.69031 9.33655 1.40737 9.43073 1.11236 9.43073C0.817341 9.43073 0.534407 9.33655 0.3258 9.1689C0.117192 9.00126 -1.46224e-06 8.77388 -1.48297e-06 8.5368C-1.5037e-06 8.29971 0.117192 8.07234 0.3258 7.9047L9.21344 0.762294C9.31664 0.679151 9.43924 0.613187 9.57421 0.568177C9.70918 0.523169 9.85387 0.500001 10 0.500001C10.1461 0.500001 10.2908 0.523169 10.4258 0.568177C10.5608 0.613187 10.6834 0.67915 10.7866 0.762294L19.6742 7.90469C19.8828 8.07234 20 8.29971 20 8.5368C20 8.77388 19.8828 9.00126 19.6742 9.1689C19.4656 9.33654 19.1827 9.43073 18.8876 9.43073C18.5926 9.43073 18.3097 9.33654 18.1011 9.1689L11.111 3.54962L11.111 24.6072C11.111 24.844 10.9939 25.0711 10.7856 25.2385C10.5772 25.4059 10.2946 25.5 10 25.5Z" fill="#4E4E4E"/>
</svg>
